#!OML:ASF G:\JayActor3\Patient Classification 1\Patient 1\Session 6\male.ASF
:FULLY-SPECIFIED
:DEGREES
1230
root -1.46893 16.2917 -21.8242 174.685 -36.0201 -173.982
lowerback 0.0215095 0.487247 2.2805
upperback 2.49532 0.553653 0.67351
thorax 2.56432 0.296741 -0.574827
lowerneck -4.62672 -1.37178 0.313275
upperneck 7.38974 -2.09222 1.98172
head 3.20067 -0.984843 0.499461
rclavicle 4.04775e-014 -6.36111e-015
rhumerus -41.9554 43.6757 -97.4106
rradius 111.922
rwrist -33.3521
rhand -29.8448 -14.746
rfingers 7.12502
rthumb -3.16755 -44.7022
lclavicle 4.04775e-014 -6.36111e-015
lhumerus -34.3242 10.3521 81.2741
lradius 22.923
lwrist 14.8157
lhand -16.8257 11.4309
lfingers 7.12502
lthumb 9.40352 41.2012
rfemur -13.7016 7.33419 18.5325
rtibia 35.3808
rfoot -19.6069 -11.5251
rtoes -0.397339
lfemur -1.97298 10.4296 -18.0943
ltibia 26.0443
lfoot -22.9203 15.514
ltoes -2.95488
1231
root -1.47036 16.292 -21.8275 174.697 -36.0011 -173.964
lowerback 0.0124037 0.474232 2.30583
upperback 2.48459 0.535989 0.678192
thorax 2.55817 0.288388 -0.584585
lowerneck -4.64043 -1.37703 0.307227
upperneck 7.46778 -2.10272 1.9846
head 3.23039 -0.990103 0.50082
rclavicle 3.39425e-014 -5.96354e-015
rhumerus -42.1545 43.6483 -97.5509
rradius 111.913
rwrist -33.3717
rhand -29.7534 -14.6306
rfingers 7.12502
rthumb -3.07932 -44.5882
lclavicle 3.39425e-014 -5.96354e-015
lhumerus -34.3071 10.2976 81.2996
lradius 22.9851
lwrist 14.8496
lhand -16.8181 11.4349
lfingers 7.12502
lthumb 9.41082 41.2048
rfemur -13.7106 7.35205 18.5532
rtibia 35.3725
rfoot -19.6085 -11.5269
rtoes -0.394826
lfemur -1.98467 10.4261 -18.078
ltibia 26.0517
lfoot -22.9358 15.5277
ltoes -2.94775
1232
root -1.47189 16.2922 -21.8308 174.706 -35.9837 -173.95
lowerback 0.00215903 0.461931 2.33071
upperback 2.47665 0.519184 0.680895
thorax 2.55555 0.280505 -0.596078
lowerneck -4.66308 -1.38575 0.30538
upperneck 7.54956 -2.11819 1.98511
head 3.26312 -0.997705 0.500398
rclavicle 2.09221e-014 -1.11319e-014
rhumerus -42.3239 43.6189 -97.6702
rradius 111.893
rwrist -33.3982
rhand -29.6021 -14.4819
rfingers 7.12502
rthumb -2.93324 -44.4415
lclavicle 2.09221e-014 -1.11319e-014
lhumerus -34.2797 10.2489 81.3215
lradius 23.0478
lwrist 14.8686
lhand -16.7892 11.4339
lfingers 7.12502
lthumb 9.43873 41.2025
rfemur -13.7174 7.36463 18.5707
rtibia 35.3671
rfoot -19.6107 -11.5252
rtoes -0.404128
lfemur -1.9919 10.4359 -18.0612
ltibia 26.0581
lfoot -22.9469 15.5311
ltoes -2.95629
1233
root -1.47348 16.2923 -21.8341 174.716 -35.969 -173.938
lowerback -0.00689645 0.449758 2.35379
upperback 2.46837 0.502649 0.682923
thorax 2.55189 0.272721 -0.607266
lowerneck -4.68543 -1.39578 0.302413
upperneck 7.63007 -2.13543 1.98713
head 3.29545 -1.00618 0.500583
rclavicle -2.79541e-014 -7.55382e-015
rhumerus -42.4737 43.5886 -97.7732
rradius 111.868
rwrist -33.4294
rhand -29.402 -14.3379
rfingers 7.12502
rthumb -2.73992 -44.3
lclavicle -2.79541e-014 -7.55382e-015
lhumerus -34.2473 10.1923 81.3496
lradius 23.1171
lwrist 14.9016
lhand -16.7753 11.4368
lfingers 7.12502
lthumb 9.45217 41.2048
rfemur -13.7231 7.37414 18.585
rtibia 35.3646
rfoot -19.6168 -11.5192
rtoes -0.409509
lfemur -1.99631 10.4564 -18.0443
ltibia 26.0623
lfoot -22.9525 15.5241
ltoes -2.97117
1234
root -1.47531 16.2922 -21.8375 174.726 -35.9586 -173.936
lowerback -0.0157696 0.438072 2.36948
upperback 2.46224 0.486873 0.682686
thorax 2.5503 0.265211 -0.616617
lowerneck -4.69945 -1.40682 0.290105
upperneck 7.70093 -2.1539 2.00023
head 3.3232 -1.01522 0.506013
rclavicle 8.04829e-014 -7.15625e-015
rhumerus -42.6134 43.5567 -97.8643
rradius 111.844
rwrist -33.4638
rhand -29.2237 -14.1979
rfingers 7.12502
rthumb -2.56774 -44.1622
lclavicle 8.04829e-014 -7.15625e-015
lhumerus -34.2076 10.1277 81.3847
lradius 23.1922
lwrist 14.9535
lhand -16.7777 11.4392
lfingers 7.12502
lthumb 9.44985 41.2073
rfemur -13.7222 7.37409 18.589
rtibia 35.3654
rfoot -19.6232 -11.5077
rtoes -0.429179
lfemur -1.99069 10.4819 -18.0352
ltibia 26.0618
lfoot -22.956 15.5123
ltoes -2.99759
1235
root -1.47728 16.2922 -21.8409 174.738 -35.9513 -173.938
lowerback -0.0244915 0.425545 2.38004
upperback 2.45309 0.470181 0.683569
thorax 2.54541 0.257108 -0.621986
lowerneck -4.69661 -1.41559 0.261896
upperneck 7.76043 -2.16905 2.02914
head 3.34426 -1.02271 0.519648
rclavicle -3.0588e-014 -1.98785e-015
rhumerus -42.7561 43.5277 -97.9519
rradius 111.828
rwrist -33.4996
rhand -29.11 -14.0891
rfingers 7.12502
rthumb -2.45797 -44.0547
lclavicle -3.0588e-014 -1.98785e-015
lhumerus -34.1675 10.0595 81.425
lradius 23.2723
lwrist 15.0215
lhand -16.7927 11.43
lfingers 7.12502
lthumb 9.43533 41.1988
rfemur -13.7212 7.37106 18.5887
rtibia 35.3681
rfoot -19.6323 -11.4937
rtoes -0.449513
lfemur -1.98306 10.5027 -18.0309
ltibia 26.0571
lfoot -22.9594 15.5014
ltoes -3.01543
1236
root -1.47923 16.2921 -21.8443 174.75 -35.9446 -173.944
lowerback -0.0306885 0.413783 2.38673
upperback 2.44354 0.454653 0.684701
thorax 2.53866 0.249479 -0.624929
lowerneck -4.68301 -1.42189 0.225079
upperneck 7.81016 -2.18076 2.06834
head 3.36014 -1.0285 0.53839
rclavicle 9.20621e-014 7.15625e-015
rhumerus -42.8982 43.4984 -98.0351
rradius 111.819
rwrist -33.5359
rhand -29.0546 -14.0095
rfingers 7.12502
rthumb -2.40446 -43.9757
lclavicle 9.20621e-014 7.15625e-015
lhumerus -34.1273 9.98636 81.4717
lradius 23.3657
lwrist 15.1095
lhand -16.8162 11.4334
lfingers 7.12502
lthumb 9.41271 41.2033
rfemur -13.7175 7.37091 18.5865
rtibia 35.372
rfoot -19.6457 -11.4781
rtoes -0.448904
lfemur -1.97096 10.5095 -18.0316
ltibia 26.0487
lfoot -22.9644 15.5052
ltoes -3.03359
1237
root -1.48103 16.2921 -21.8476 174.761 -35.9373 -173.949
lowerback -0.0342344 0.4037 2.39159
upperback 2.43322 0.441504 0.685742
thorax 2.52968 0.242977 -0.626911
lowerneck -4.66284 -1.42656 0.181385
upperneck 7.85238 -2.19037 2.11754
head 3.37241 -1.03317 0.561758
rclavicle 9.69572e-014 -8.74653e-015
rhumerus -43.0409 43.4671 -98.1157
rradius 111.82
rwrist -33.5728
rhand -29.0745 -13.9629
rfingers 7.12502
rthumb -2.42363 -43.9289
lclavicle 9.69572e-014 -8.74653e-015
lhumerus -34.0864 9.9099 81.5199
lradius 23.4707
lwrist 15.1963
lhand -16.8655 11.4229
lfingers 7.12502
lthumb 9.36513 41.1949
rfemur -13.7136 7.37414 18.5846
rtibia 35.3747
rfoot -19.6594 -11.4645
rtoes -0.439179
lfemur -1.95977 10.5001 -18.0362
ltibia 26.0406
lfoot -22.9725 15.5237
ltoes -3.04548
1238
root -1.48263 16.2922 -21.8509 174.772 -35.927 -173.952
lowerback -0.0353264 0.394234 2.39674
upperback 2.4217 0.429245 0.688126
thorax 2.5181 0.236873 -0.627671
lowerneck -4.64617 -1.42931 0.138268
upperneck 7.89591 -2.19757 2.16683
head 3.38581 -1.0366 0.585159
rclavicle -6.76613e-014 1.07344e-014
rhumerus -43.1721 43.4401 -98.1907
rradius 111.822
rwrist -33.6128
rhand -29.1006 -13.9357
rfingers 7.12502
rthumb -2.44887 -43.9014
lclavicle -6.76613e-014 1.07344e-014
lhumerus -34.0476 9.83518 81.5671
lradius 23.5895
lwrist 15.2754
lhand -16.9188 11.4079
lfingers 7.12502
lthumb 9.31367 41.1821
rfemur -13.7117 7.3822 18.5867
rtibia 35.3765
rfoot -19.6735 -11.4543
rtoes -0.419811
lfemur -1.95069 10.4724 -18.0419
ltibia 26.0339
lfoot -22.986 15.5611
ltoes -3.05274
1239
root -1.48396 16.2923 -21.854 174.78 -35.9127 -173.945
lowerback -0.034633 0.385306 2.40628
upperback 2.40863 0.417659 0.692937
thorax 2.50395 0.231124 -0.628407
lowerneck -4.63544 -1.43142 0.100695
upperneck 7.94336 -2.20398 2.20961
head 3.40154 -1.03965 0.605474
rclavicle 3.95085e-015 1.19271e-015
rhumerus -43.2907 43.4173 -98.2579
rradius 111.825
rwrist -33.6481
rhand -29.1226 -13.9267
rfingers 7.12502
rthumb -2.47009 -43.8922
lclavicle 3.95085e-015 1.19271e-015
lhumerus -34.0092 9.75471 81.6164
lradius 23.7168
lwrist 15.3494
lhand -16.9543 11.3894
lfingers 7.12502
lthumb 9.27948 41.1652
rfemur -13.7136 7.39728 18.5974
rtibia 35.3771
rfoot -19.6872 -11.4467
rtoes -0.381673
lfemur -1.94678 10.4419 -18.0404
ltibia 26.0302
lfoot -23.0035 15.5992
ltoes -3.04144
